<?xml version="1.0" encoding="utf-8"?>
<!-- Generator: Adobe Illustrator 16.0.0, SVG Export Plug-In . SVG Version: 6.00 Build 0)  -->
<!DOCTYPE svg PUBLIC "-//W3C//DTD SVG 1.1//EN" "http://www.w3.org/Graphics/SVG/1.1/DTD/svg11.dtd">
<svg version="1.1" id="Layer_1" xmlns="http://www.w3.org/2000/svg" xmlns:xlink="http://www.w3.org/1999/xlink" x="0px" y="0px"
	 width="288px" height="288px" viewBox="0 0 288 288" enable-background="new 0 0 288 288" xml:space="preserve">
<g id="guides">
</g>
<g>
	<circle fill="#FFFFFF" cx="143.934" cy="144.066" r="112.816"/>
</g>
<g>
	<g>
		<g>
			<defs>
				<circle id="SVGID_2_" cx="144" cy="144" r="22.458"/>
			</defs>
			<clipPath id="SVGID_3_">
				<use xlink:href="#SVGID_2_"  overflow="visible"/>
			</clipPath>
			<g clip-path="url(#SVGID_3_)">
				<line fill="none" stroke="#47C8F5" stroke-miterlimit="10" x1="171.611" y1="116.389" x2="116.389" y2="171.611"/>
				<line fill="none" stroke="#47C8F5" stroke-miterlimit="10" x1="167.175" y1="116.389" x2="111.953" y2="171.611"/>
				<line fill="none" stroke="#47C8F5" stroke-miterlimit="10" x1="162.736" y1="116.389" x2="107.517" y2="171.611"/>
				<line fill="none" stroke="#47C8F5" stroke-miterlimit="10" x1="158.302" y1="116.389" x2="103.08" y2="171.611"/>
				<line fill="none" stroke="#47C8F5" stroke-miterlimit="10" x1="153.865" y1="116.389" x2="98.643" y2="171.611"/>
				<line fill="none" stroke="#47C8F5" stroke-miterlimit="10" x1="149.43" y1="116.389" x2="94.207" y2="171.611"/>
				<line fill="none" stroke="#47C8F5" stroke-miterlimit="10" x1="144.992" y1="116.389" x2="89.771" y2="171.611"/>
				<line fill="none" stroke="#47C8F5" stroke-miterlimit="10" x1="140.556" y1="116.389" x2="85.334" y2="171.611"/>
				<line fill="none" stroke="#47C8F5" stroke-miterlimit="10" x1="176.047" y1="116.389" x2="120.825" y2="171.611"/>
				<line fill="none" stroke="#47C8F5" stroke-miterlimit="10" x1="180.482" y1="116.389" x2="125.263" y2="171.611"/>
				<line fill="none" stroke="#47C8F5" stroke-miterlimit="10" x1="184.92" y1="116.389" x2="129.699" y2="171.611"/>
				<line fill="none" stroke="#47C8F5" stroke-miterlimit="10" x1="189.357" y1="116.389" x2="134.135" y2="171.611"/>
				<line fill="none" stroke="#47C8F5" stroke-miterlimit="10" x1="193.793" y1="116.389" x2="138.571" y2="171.611"/>
				<line fill="none" stroke="#47C8F5" stroke-miterlimit="10" x1="198.229" y1="116.389" x2="143.008" y2="171.611"/>
				<line fill="none" stroke="#47C8F5" stroke-miterlimit="10" x1="202.666" y1="116.389" x2="147.443" y2="171.611"/>
			</g>
		</g>
	</g>
	<g>
		<circle id="SVGID_1_" fill="none" stroke="#47C8F5" stroke-width="1.5" stroke-miterlimit="10" cx="144" cy="144" r="22.458"/>
	</g>
</g>
<g>
	<circle fill="none" stroke="#1C3664" stroke-miterlimit="10" cx="144" cy="144" r="27"/>
	<circle fill="#1C3664" cx="117" cy="144" r="1.75"/>
	<circle fill="#1C3664" cx="117.668" cy="150.001" r="1.75"/>
</g>
<g>
	<path fill="#47C8F5" d="M144,103.5c-22.365,0-40.5,18.135-40.5,40.5s18.135,40.5,40.5,40.5s40.5-18.135,40.5-40.5h-8.917
		c0,17.441-14.142,31.583-31.583,31.583c-17.441,0-31.583-14.142-31.583-31.583c0-17.441,14.142-31.432,31.583-31.432V103.5z"/>
	<line fill="none" stroke="#47C8F5" stroke-miterlimit="10" x1="144.062" y1="103.5" x2="144.062" y2="112.541"/>
	<line fill="none" stroke="#47C8F5" stroke-miterlimit="10" x1="147.24" y1="103.63" x2="146.531" y2="112.643"/>
	<line fill="none" stroke="#47C8F5" stroke-miterlimit="10" x1="150.396" y1="104.009" x2="148.982" y2="112.938"/>
	<line fill="none" stroke="#47C8F5" stroke-miterlimit="10" x1="153.516" y1="104.634" x2="151.406" y2="113.426"/>
	<line fill="none" stroke="#47C8F5" stroke-miterlimit="10" x1="156.574" y1="105.502" x2="153.783" y2="114.101"/>
	<line fill="none" stroke="#47C8F5" stroke-miterlimit="10" x1="159.557" y1="106.607" x2="156.1" y2="114.96"/>
	<line fill="none" stroke="#47C8F5" stroke-miterlimit="10" x1="162.441" y1="107.943" x2="158.34" y2="115.999"/>
	<line fill="none" stroke="#47C8F5" stroke-miterlimit="10" x1="165.215" y1="109.502" x2="160.492" y2="117.21"/>
	<line fill="none" stroke="#47C8F5" stroke-miterlimit="10" x1="167.855" y1="111.273" x2="162.543" y2="118.586"/>
	<line fill="none" stroke="#47C8F5" stroke-miterlimit="10" x1="170.352" y1="113.246" x2="164.48" y2="120.119"/>
	<line fill="none" stroke="#47C8F5" stroke-miterlimit="10" x1="172.684" y1="115.408" x2="166.292" y2="121.8"/>
	<line fill="none" stroke="#47C8F5" stroke-miterlimit="10" x1="174.838" y1="117.746" x2="167.966" y2="123.617"/>
	<line fill="none" stroke="#47C8F5" stroke-miterlimit="10" x1="176.803" y1="120.247" x2="169.492" y2="125.561"/>
	<line fill="none" stroke="#47C8F5" stroke-miterlimit="10" x1="178.564" y1="122.895" x2="170.859" y2="127.617"/>
	<line fill="none" stroke="#47C8F5" stroke-miterlimit="10" x1="180.115" y1="125.671" x2="172.062" y2="129.775"/>
	<line fill="none" stroke="#47C8F5" stroke-miterlimit="10" x1="181.441" y1="128.562" x2="173.093" y2="132.021"/>
	<line fill="none" stroke="#47C8F5" stroke-miterlimit="10" x1="182.538" y1="131.547" x2="173.941" y2="134.342"/>
	<line fill="none" stroke="#47C8F5" stroke-miterlimit="10" x1="183.396" y1="134.608" x2="174.607" y2="136.721"/>
	<line fill="none" stroke="#47C8F5" stroke-miterlimit="10" x1="184.014" y1="137.729" x2="175.086" y2="139.145"/>
	<line fill="none" stroke="#47C8F5" stroke-miterlimit="10" x1="184.383" y1="140.888" x2="175.371" y2="141.599"/>
	<line fill="none" stroke="#47C8F5" stroke-miterlimit="10" x1="184.5" y1="144.065" x2="175.583" y2="144.066"/>
</g>
<g>
	<path fill="#47C8F5" d="M38.667,144c0,58.168,47.165,105.333,105.333,105.333S249.333,202.168,249.333,144
		S202.168,38.667,144,38.667v23.191c45.361,0,82.143,36.78,82.143,82.142c0,45.361-36.781,82.143-82.143,82.143
		c-45.362,0-81.748-36.778-81.748-82.143H38.667z"/>
	<line fill="none" stroke="#47C8F5" stroke-width="3" stroke-miterlimit="10" x1="38.667" y1="143.838" x2="62.182" y2="143.838"/>
	<line fill="none" stroke="#47C8F5" stroke-width="3" stroke-miterlimit="10" x1="39.004" y1="135.572" x2="62.445" y2="137.417"/>
	<line fill="none" stroke="#47C8F5" stroke-width="3" stroke-miterlimit="10" x1="39.99" y1="127.361" x2="63.215" y2="131.039"/>
	<line fill="none" stroke="#47C8F5" stroke-width="3" stroke-miterlimit="10" x1="41.615" y1="119.251" x2="64.481" y2="124.737"/>
	<line fill="none" stroke="#47C8F5" stroke-width="3" stroke-miterlimit="10" x1="43.873" y1="111.297" x2="66.237" y2="118.556"/>
	<line fill="none" stroke="#47C8F5" stroke-width="3" stroke-miterlimit="10" x1="46.749" y1="103.54" x2="68.472" y2="112.534"/>
	<line fill="none" stroke="#47C8F5" stroke-width="3" stroke-miterlimit="10" x1="50.224" y1="96.035" x2="71.175" y2="106.704"/>
	<line fill="none" stroke="#47C8F5" stroke-width="3" stroke-miterlimit="10" x1="54.276" y1="88.824" x2="74.324" y2="101.107"/>
	<line fill="none" stroke="#47C8F5" stroke-width="3" stroke-miterlimit="10" x1="58.884" y1="81.954" x2="77.902" y2="95.773"/>
	<line fill="none" stroke="#47C8F5" stroke-width="3" stroke-miterlimit="10" x1="64.015" y1="75.467" x2="81.89" y2="90.733"/>
	<line fill="none" stroke="#47C8F5" stroke-width="3" stroke-miterlimit="10" x1="69.638" y1="69.402" x2="86.262" y2="86.022"/>
	<line fill="none" stroke="#47C8F5" stroke-width="3" stroke-miterlimit="10" x1="75.718" y1="63.796" x2="90.988" y2="81.67"/>
	<line fill="none" stroke="#47C8F5" stroke-width="3" stroke-miterlimit="10" x1="82.223" y1="58.686" x2="96.042" y2="77.7"/>
	<line fill="none" stroke="#47C8F5" stroke-width="3" stroke-miterlimit="10" x1="89.108" y1="54.103" x2="101.392" y2="74.141"/>
	<line fill="none" stroke="#47C8F5" stroke-width="3" stroke-miterlimit="10" x1="96.329" y1="50.07" x2="107.005" y2="71.015"/>
	<line fill="none" stroke="#47C8F5" stroke-width="3" stroke-miterlimit="10" x1="103.848" y1="46.619" x2="112.847" y2="68.335"/>
	<line fill="none" stroke="#47C8F5" stroke-width="3" stroke-miterlimit="10" x1="111.612" y1="43.77" x2="118.881" y2="66.126"/>
	<line fill="none" stroke="#47C8F5" stroke-width="3" stroke-miterlimit="10" x1="119.574" y1="41.534" x2="125.067" y2="64.394"/>
	<line fill="none" stroke="#47C8F5" stroke-width="3" stroke-miterlimit="10" x1="127.688" y1="39.932" x2="131.372" y2="63.151"/>
	<line fill="none" stroke="#47C8F5" stroke-width="3" stroke-miterlimit="10" x1="135.905" y1="38.972" x2="137.754" y2="62.41"/>
	<line fill="none" stroke="#47C8F5" stroke-width="3" stroke-miterlimit="10" x1="144.17" y1="38.667" x2="144.173" y2="61.858"/>
</g>
<g>
	<g>
		<path fill="#1C3664" d="M221.027,151.473c-4.12,0-7.473-3.353-7.473-7.473s3.353-7.472,7.473-7.472c4.119,0,7.47,3.352,7.47,7.472
			S225.146,151.473,221.027,151.473z"/>
		<path fill="#FFFFFF" d="M221.027,139.028c2.744,0,4.97,2.225,4.97,4.972s-2.226,4.973-4.97,4.973
			c-2.748,0-4.973-2.226-4.973-4.973S218.279,139.028,221.027,139.028 M221.027,134.028c-5.5,0-9.973,4.474-9.973,9.972
			s4.473,9.973,9.973,9.973c5.496,0,9.97-4.475,9.97-9.973S226.523,134.028,221.027,134.028L221.027,134.028z"/>
	</g>
	<g>
		<path fill="#1C3664" d="M217.432,128.152c-4.121,0-7.473-3.352-7.473-7.471c0-4.12,3.352-7.472,7.473-7.472
			c4.119,0,7.471,3.352,7.471,7.472C224.902,124.801,221.551,128.152,217.432,128.152z"/>
		<path fill="#FFFFFF" d="M217.432,115.71c2.744,0,4.971,2.225,4.971,4.972s-2.227,4.971-4.971,4.971
			c-2.746,0-4.973-2.224-4.973-4.971S214.686,115.71,217.432,115.71 M217.432,110.71c-5.498,0-9.973,4.474-9.973,9.972
			s4.475,9.971,9.973,9.971s9.971-4.473,9.971-9.971S222.93,110.71,217.432,110.71L217.432,110.71z"/>
	</g>
	<g>
		<path fill="#1C3664" d="M207.291,107.134c-4.12,0-7.473-3.352-7.473-7.471c0-4.12,3.353-7.472,7.473-7.472
			s7.473,3.352,7.473,7.472C214.764,103.782,211.411,107.134,207.291,107.134z"/>
		<path fill="#FFFFFF" d="M207.291,94.691c2.745,0,4.973,2.225,4.973,4.972s-2.228,4.971-4.973,4.971s-4.973-2.224-4.973-4.971
			S204.546,94.691,207.291,94.691 M207.291,89.691c-5.498,0-9.973,4.474-9.973,9.972s4.475,9.971,9.973,9.971
			s9.973-4.473,9.973-9.971S212.789,89.691,207.291,89.691L207.291,89.691z"/>
	</g>
	<circle fill="none" stroke="#1C3664" stroke-width="3" stroke-miterlimit="10" cx="144.328" cy="144" r="76.698"/>
</g>
<path fill="none" stroke="#47C8F5" stroke-width="2" stroke-miterlimit="10" d="M144,193.768c-27.485,0-49.767-22.281-49.767-49.768
	c0-27.486,22.282-49.767,49.767-49.767c27.484,0,49.768,22.281,49.768,49.767c0,22.845-15.394,42.094-36.373,47.941"/>
<path fill="none" stroke="#47C8F5" stroke-width="1.25" stroke-miterlimit="10" d="M80.332,134.991
	c4.16-29.611,28.657-53.22,59.664-55.155c35.438-2.211,65.955,24.724,68.168,60.16c2.212,35.436-24.725,65.957-60.159,68.168
	c-29.455,1.837-55.51-16.459-64.739-43.037"/>
<path fill="#47C8F5" d="M96.91,161.141l-13.3,4.84c8.979,24.66,32.63,42.271,60.39,42.271V194.1
	C122.35,194.1,103.91,180.37,96.91,161.141z"/>
<line fill="none" stroke="#47C8F5" stroke-width="2" stroke-miterlimit="10" x1="83.61" y1="165.98" x2="97.207" y2="160.984"/>
<line fill="none" stroke="#47C8F5" stroke-width="2" stroke-miterlimit="10" x1="81.917" y1="160.607" x2="95.899" y2="156.822"/>
<line fill="none" stroke="#47C8F5" stroke-width="2" stroke-miterlimit="10" x1="80.701" y1="155.105" x2="94.961" y2="152.561"/>
<line fill="none" stroke="#47C8F5" stroke-width="2" stroke-miterlimit="10" x1="79.972" y1="149.521" x2="94.4" y2="148.232"/>
<line fill="none" stroke="#47C8F5" stroke-width="2" stroke-miterlimit="10" x1="79.734" y1="143.892" x2="94.221" y2="143.873"/>
<text transform="matrix(1 0 0 1 95.7793 266.7002)" fill="#1C3664" font-family="'Arial-BoldMT'" font-size="14">BACK TO TOP</text>
</svg>
