<?xml version="1.0" encoding="utf-8"?>
<!-- Generator: Adobe Illustrator 17.1.0, SVG Export Plug-In . SVG Version: 6.00 Build 0)  -->
<!DOCTYPE svg PUBLIC "-//W3C//DTD SVG 1.1//EN" "http://www.w3.org/Graphics/SVG/1.1/DTD/svg11.dtd">
<svg version="1.1" id="Layer_1" xmlns="http://www.w3.org/2000/svg" xmlns:xlink="http://www.w3.org/1999/xlink" x="0px" y="0px"
	 viewBox="0 0 640 480" enable-background="new 0 0 640 480" xml:space="preserve">
<g>
	<g>
		<path fill="#00CCFF" d="M320,19.9C198.4,19.9,99.9,118.4,99.9,240c0,121.6,98.6,220.1,220.1,220.1c121.5,0,220.1-98.5,220.1-220.1
			C540.1,118.4,441.6,19.9,320,19.9z M308.9,101.6h18.8L218.9,289.7h159.8l9,15.2H191.3L308.9,101.6z M436.1,333l-235.7,0.5
			l-9.3-15.8h0l-0.1-0.1l216.9,0.1h0.3l-80-138.6l9.4-16.3L436.2,333L436.1,333L436.1,333z M446.3,327.7L446.3,327.7L337.6,139.8
			L257.9,278l-18.7,0l98.5-170.7l118,204.2L446.3,327.7z"/>
	</g>
</g>
</svg>
