<?xml version="1.0" encoding="utf-8"?>
<!-- Generator: Adobe Illustrator 17.1.0, SVG Export Plug-In . SVG Version: 6.00 Build 0)  -->
<!DOCTYPE svg PUBLIC "-//W3C//DTD SVG 1.1//EN" "http://www.w3.org/Graphics/SVG/1.1/DTD/svg11.dtd">
<svg version="1.1" id="Layer_1" xmlns="http://www.w3.org/2000/svg" xmlns:xlink="http://www.w3.org/1999/xlink" x="0px" y="0px"
	 viewBox="0 315.4 640 164.6" enable-background="new 0 315.4 640 164.6" xml:space="preserve">
<g>
	<g>
		<path fill="#FFFFFF" d="M82.3,315.4C36.8,315.4,0,352.3,0,397.7C0,443.2,36.8,480,82.3,480c45.4,0,82.3-36.8,82.3-82.3
			C164.6,352.3,127.7,315.4,82.3,315.4z M78.1,346h7l-40.6,70.3h59.7l3.4,5.7H34.2L78.1,346z M125.7,432.5l-88.1,0.2l-3.5-5.9l0,0
			l0,0h81.1h0.1L85.4,375l3.5-6.1L125.7,432.5L125.7,432.5L125.7,432.5z M129.5,430.5L129.5,430.5l-40.6-70.3l-29.8,51.7h-7
			l36.8-63.8l44.1,76.3L129.5,430.5z"/>
	</g>
	<g>
		<polygon fill="#FFFFFF" points="106.3,422.1 106.2,422.3 106.2,422.1 		"/>
	</g>
	<g>
		<path fill="#FFFFFF" d="M207.1,336.5v38.7h23.2v8.8h-33.6v-47.5H207.1L207.1,336.5L207.1,336.5z"/>
		<path fill="#FFFFFF" d="M253.2,336.5V384h-10.4v-47.5H253.2z"/>
		<path fill="#FFFFFF" d="M277,372.3c0.6,1.1,1.3,2,2.3,2.7s2.1,1.2,3.4,1.5s2.6,0.5,4,0.5c0.9,0,1.9-0.1,3-0.2
			c1.1-0.2,2.1-0.5,3-0.9c0.9-0.4,1.7-1.1,2.3-1.8c0.6-0.8,0.9-1.8,0.9-3c0-1.3-0.4-2.3-1.2-3.1c-0.8-0.8-1.9-1.5-3.2-2
			c-1.3-0.5-2.8-1-4.5-1.4s-3.4-0.8-5.1-1.3c-1.8-0.4-3.5-1-5.2-1.6c-1.7-0.6-3.2-1.5-4.5-2.5s-2.4-2.3-3.2-3.8
			c-0.8-1.5-1.2-3.4-1.2-5.6c0-2.4,0.5-4.6,1.6-6.4c1-1.8,2.4-3.3,4.1-4.5s3.6-2.1,5.7-2.7c2.1-0.6,4.3-0.9,6.4-0.9
			c2.5,0,4.9,0.3,7.2,0.8s4.3,1.5,6.1,2.7c1.8,1.2,3.2,2.8,4.2,4.8c1,1.9,1.6,4.3,1.6,7h-10.1c-0.1-1.4-0.4-2.6-0.9-3.5
			s-1.2-1.7-2-2.2s-1.8-0.9-2.9-1.1s-2.3-0.3-3.6-0.3c-0.8,0-1.7,0.1-2.5,0.3c-0.8,0.2-1.6,0.5-2.3,0.9c-0.7,0.4-1.3,1-1.7,1.7
			c-0.4,0.7-0.7,1.5-0.7,2.5c0,0.9,0.2,1.7,0.5,2.3c0.4,0.6,1.1,1.1,2.1,1.6s2.5,1,4.3,1.5s4.2,1.1,7.2,1.9c0.9,0.2,2.1,0.5,3.7,1
			s3.1,1.2,4.7,2.2s2.9,2.4,4,4.1s1.7,3.9,1.7,6.6c0,2.2-0.4,4.2-1.3,6.1c-0.8,1.9-2.1,3.5-3.8,4.8c-1.7,1.4-3.7,2.4-6.2,3.2
			s-5.3,1.1-8.6,1.1c-2.6,0-5.2-0.3-7.6-1c-2.5-0.6-4.6-1.7-6.5-3c-1.9-1.4-3.4-3.1-4.5-5.3c-1.1-2.1-1.6-4.7-1.6-7.6h10.1
			C276.2,369.8,276.5,371.2,277,372.3z"/>
		<path fill="#FFFFFF" d="M342.6,336.5h-10.7l-18,47.5h10.5l3.7-10.6h17.8l3.6,10.6h10.8L342.6,336.5z M330.9,365.6l6.2-17.4h0.1
			l6,17.4H330.9z"/>
		<path fill="#FFFFFF" d="M208.8,463.8l-16.7-47.5h6.8l13.6,41.2h0.1l13.7-41.2h6.6L216,463.8H208.8z"/>
		<path fill="#FFFFFF" d="M251.2,416.3v47.5h-6.3v-47.5H251.2L251.2,416.3z"/>
		<path fill="#FFFFFF" d="M274.8,416.3v42.2h25.1v5.3h-31.5v-47.5H274.8L274.8,416.3z"/>
		<path fill="#FFFFFF" d="M318.4,416.3v42.2h25.1v5.3H312v-47.5H318.4L318.4,416.3z"/>
		<path fill="#FFFFFF" d="M388.5,416.3v5.3H362v15.1h24.7v5.3H362v16.4h26.7v5.3h-33v-47.5L388.5,416.3L388.5,416.3z"/>
		<path fill="#FFFFFF" d="M409.7,416.3l25,38.5h0.1v-38.5h6v47.5h-6.9l-24.8-38.1H409v38.1h-6v-47.5H409.7L409.7,416.3z"/>
		<path fill="#FFFFFF" d="M490.5,416.3v5.3H464v15.1h24.7v5.3H464v16.4h26.7v5.3h-33v-47.5L490.5,416.3L490.5,416.3z"/>
		<path fill="#FFFFFF" d="M538.1,460.3c-3.2,3-7.8,4.6-13.8,4.6c-6.1,0-10.9-1.5-14.3-4.4c-3.4-2.9-5.2-7.5-5.2-13.9v-30.3h6.3v30.4
			c0,4.3,1.1,7.5,3.4,9.7c2.3,2.2,5.5,3.3,9.8,3.3c4,0,7.1-1.1,9.2-3.3c2.1-2.2,3.2-5.4,3.2-9.7v-30.3h6.3v30.3
			C542.9,452.7,541.3,457.3,538.1,460.3z"/>
		<path fill="#FFFFFF" d="M571.2,463.8l-16.7-47.5h6.8l13.6,41.2h0.1l13.7-41.2h6.6l-16.9,47.5H571.2z"/>
		<path fill="#FFFFFF" d="M639.8,416.3v5.3h-26.5v15.1H638v5.3h-24.7v16.4H640v5.3h-33v-47.5L639.8,416.3L639.8,416.3z"/>
	</g>
</g>
</svg>
